<?xml version="1.0" encoding="UTF-8"?><svg id="Calque_2" width="90.6px"" xmlns="http://www.w3.org/2000/svg" viewBox="0 0 220.28 74.73"><defs><style>.cls-1{fill:#404040;}.cls-2{fill:#3f3f3f;}.cls-3{fill:#363636;}.cls-4{fill:#454545;}.cls-5{fill:#2c2c2c;}.cls-6{fill:#3b3b3b;}.cls-7{fill:#3e3e3e;}.cls-8{fill:#4e4e4e;}.cls-9{fill:#424242;}.cls-10{fill:#313131;}.cls-11{fill:#333;}.cls-12{fill:#434343;}</style></defs><g id="objects"><path class="cls-3" d="M170.78,30.9c1.3-1.3,2.6-2.6,3.9-3.9,1.08-2.3-.7-1.98-1.9-1.99-4.94-.04-9.89.08-14.83-.05-3.5-.09-6.99-.49-9.86-2.87l.05.05c-2.83-1.5-3.62-4.12-3.18-6.93.5-3.17,2.48-5.37,5.78-6.12,1.59-.42,3.32.2,4.86-.65.4-.16.8-.25,1.23-.27,2.89-.34,5.66.08,8.52.65,6.15,1.23,12.23-.31,18.22-1.51,2.65-.53,5.32-1.33,7.88-2.34,4.94-1.82,10.12-2.74,15.2-4.06,6.81.1,10.43,4.5,9.57,11.14-.35,2.69-2.73,3.29-3.93,5.04-4.05,6.82-6.78,14.2-9.17,21.72-.5,1.57-.61,3.34-1.94,4.57l.06-.08c-.45.64.09,2.26-1.63,1.66-.9-1.43-.19-2.79.21-4.14.89-3.01,2.03-5.94,2.85-8.98.69-2.57.57-4.97-1.64-6.81-1.96-1.64-1.83-3.44-.95-5.62,1.6-3.96.82-6.8-2.05-8.62-2.51-1.59-5.69-1.03-8.5,1.58-1.05.97-2.23,1.83-2.96,3.11-4.5,7.09-9.94,13.39-16.14,19.04-1.2,1.09-2.17,2.77-4.26,2.12-.02-3.17,2.95-3.92,4.62-5.73Z"/><path class="cls-7" d="M2.67,55.17c-.24-.24-.48-.48-.71-.72-3.28-4.9-2.42-9.46,2.51-13.11.94-.7,2.03-1.15,3.03-1.75l-.06.04c1.47-1.08,2.57-2.69,4.46-3.18,4.14-1.85,7.11-5.55,11.59-6.97,4.62-1.46,9.45,1.25,10,6.06.13,1.13.05,2.37-1.11,2.6-3.71.74-5.25,4.01-7.69,6.22-.44.59-1.01,1.03-1.62,1.43h.02c-2.16,2.1-4.51,3.96-7.16,5.45l.06-.05c-1.34,1.06-2.34,2.56-4.07,3.11l.08-.07c-2.89,2.52-5.97,3.17-9.33.93Z"/><path class="cls-5" d="M170.59,51.92c-1.3.45-2.32,1.27-3.14,2.36-6.06,3.78-12.04,7.68-18.2,11.28-3.45,2.01-7.21,3.5-10.84,5.23-1.69.35-3.37.71-5.06,1.06-8.42,1.61-16.85,2.9-25.48,1.89-2.6-.3-4.75-1.47-6.72-2.9-2.27-1.65-2.52-4.18-1.64-6.72.94-2.69,4.45-4.95,7.51-4.5,5.09.75,10.13-.46,15.19-.05.54.04,1.03-.05,1.36-.53,5.09-1.56,10.46-2.3,15.07-5.23,3.03-.88,5.51-2.71,7.9-4.67,6.21-3.27,12.12-6.98,17.26-11.81.68-.34,1.36-.67,2.04-1.01,1.71.2,2.49-1.17,3.52-2.1,6.21-5.68,11.67-12,16.29-19.04,3.88-3,7.13-3.28,9.78-.85,3.41,3.14,4.08,7.32,1.73,11.2-2.18,3.59-5,6.65-8.03,9.53-1.3,1.89-3.58,2.61-5.08,4.27-3.92,4.81-8.99,8.38-13.48,12.58Z"/><path class="cls-10" d="M188.05,34.86c3.12-3.56,6.52-6.81,8.96-11.03,1.94-3.36-.04-5.27-1.29-7.65-1.3-2.48-3.56-2.91-6.01-2.42-1.38.28-2.69.94-4.03,1.43,2.47-2.82,4.31-6.42,8.96-6.32,5.83.13,9.18,5.17,6.58,10.47-1.12,2.28-1.6,3.81,1.05,5.45,2.2,1.36,2.04,3.83,1.59,6.25-.9,4.85-3.59,9.19-3.97,14.18-2.43,7.49-4.86,14.99-7.29,22.48-2.71,4.95-7.15,6.02-12.31,5.46-5.02-3.3-5.83-5.47-4.23-11.39,1.01-3.76,2.72-7.2,4.74-10.51,1.27-1.03,1.06-2.66,1.64-3.97l-.02.05c3.05-3.63,4.03-8.19,5.62-12.48Z"/><path class="cls-9" d="M169.3,5.12c3.83-.6,7.65-1.19,11.48-1.79,2.68-.25,5.36-.99,8.03-.21,1.36.4,2.65,1.11,3.15,2.64-7.65,3.35-15.81,4.42-24.01,4.58-4.04.08-8-1.95-12.2-1.51,4.49-1.34,9.32-1.44,13.55-3.71Z"/><path class="cls-8" d="M191.96,5.76c-3.37-2.46-7.27-2.49-11.18-2.43,4.54-.99,9.08-1.97,13.62-2.96,5.97-.92,11.96.2,17.94-.24,1.14-.08,2.37-.12,3.28.88-1.25,1.27-2.72,1.14-4.27.74-1.48-.38-2.98-.66-4.45.08-4.98,1.31-9.95,2.62-14.93,3.92Z"/><path class="cls-2" d="M206.89,1.83c2.78-1.59,5.83-.36,8.72-.82.45.07.9.14,1.34.21.77.79,1.53,1.57,2.3,2.36,2.08,6.17,1.21,8.38-4.48,11.59-.65.36-1.18.93-1.76,1.41-.43.17-.87.33-1.3.5.1-2.34,3.06-2.27,3.6-4.29,1.54-5.76-2.33-10.82-8.42-10.95Z"/><path class="cls-9" d="M150.83,9.58c1.53-1.06,3.27-.82,4.97-.77-1.45,1.6-3.29.69-4.97.77Z"/><path class="cls-1" d="M22.46,28.71c1.78-.73,3.33-1.81,4.74-3.11,6.27-3.15,12.55-6.29,18.82-9.44,5.36-2.19,10.71-4.38,16.06-6.56,5.59-1.2,8.92,1.23,9.16,6.59.11,2.54-.81,4.01-3.32,4.93-3.25,1.2-6.65,2.18-9.47,4.35-.57.45-1.14.91-1.7,1.36-5.42,1.95-10.66,4.29-15.67,7.11-4.65,1.88-8.76,4.64-12.61,7.81-1.5.92-3.01,1.84-4.51,2.76,2.37-2.71,3.33-7,8.16-6.93.96.01.65-1.12.51-1.91-.85-4.75-4.66-6.05-9.3-4.95-4.65,1.1-6.85,5.89-11.56,6.35,1.72-1.49,3.43-2.98,5.15-4.47,1.84-1.3,3.69-2.59,5.53-3.89Z"/><path class="cls-12" d="M58.46,25.47c1.86-2.96,5.24-3.43,8.07-4.31,3.51-1.09,4.23-3.16,3.61-6.13-.63-2.98-2.09-5.38-5.7-5.34-.78,0-1.57-.06-2.35-.09,11.52-4.83,23.3-6.45,35.51-2.91,1.04,1.04,2.08,2.08,3.12,3.12,2.69,7.54,1.76,15.2-.05,22.62-1.67,6.83-1.84,13.58-1.4,20.47-.44.24-.81.17-1.13-.22-1.32-5.92-1.03-11.85,0-17.76.33-1.92.95-3.81.65-5.78-.34-2.27-.96-4.48-3.74-4.78-2.89-.32-4.7,1.07-5.45,3.88-.36,1.38-.53,2.83-1.29,4.08-.41.67-.85,1.35-1.83.9.68-3.94,1.36-7.88,2.03-11.82.41-2.38-.58-3.1-2.97-3.12-5.64-.05-11.05.83-16.22,3.08-3.96.48-7.03,3.35-10.88,4.13Z"/><path class="cls-11" d="M98.5,52.89c.26,0,.52,0,.78,0,1.85,4.39,5.57,6.12,9.92,6.33,4.79.23,9.6-.09,14.4-.18-4.99,1.3-10.05,1.93-15.18,1.17-3.27-.48-5.55,1.19-7.49,3.34-1.59,1.78-1.45,4.43.06,5.75,2.28,1.98,4.78,4.08,8.25,4.03,7.03-.11,14.09.44,21-1.47.97-.27,2.08-.02,3.12-.01-13.09,3.69-26.05,4.6-38.67-1.81-1.44-1.9-4.08-2.64-4.93-5.1-1.05-2.23-2.58-4.21-3.24-6.64-1.02-3.77.21-6.91,3.31-8.22,3.43-1.46,6.48-.46,8.66,2.83Z"/><path class="cls-6" d="M98.5,52.89c-1.42-.58-2.12-2.27-3.9-2.36-2.52-.13-5.21-.23-6.64,2.13-1.44,2.37-1.59,5.15-.13,7.74.82,1.45,2.09,2.68,1.94,4.53-1.94-1.37-2.73-3.49-3.33-5.59-2.47-8.7-2.55-17.42.07-26.12,1.53-1.12,1.53-2.86,1.82-4.49.77-4.3,3.01-6.12,7.28-5.64,3.95.45,4.19,3.7,4.44,6.64.33,3.91-1.9,7.49-1.63,11.48.27,3.88.08,7.79.09,11.69Z"/><path class="cls-4" d="M182.45,47.29c.16,1.61.43,3.28-1.64,3.97.12-.71.24-1.43.35-2.14.43-.61.86-1.22,1.29-1.83Z"/><path class="cls-4" d="M188.05,34.86c-.17,4.93-1.91,9.15-5.62,12.48.91-2.26,1.8-4.54,2.74-6.79.54-1.28.23-1.67-1.09-1.21.16-2.53,3.09-2.6,3.97-4.49Z"/></g></svg>