<?xml version="1.0" encoding="UTF-8"?><svg id="Calque_2" width="90.6px" xmlns="http://www.w3.org/2000/svg" viewBox="0 0 90.6 147.34"><defs><style>.cls-1{fill:#323232;}.cls-2{fill:#2b2b2b;}.cls-3{fill:#232323;}.cls-4{fill:#292929;}.cls-5{fill:#3a3a3a;}.cls-6{fill:#303030;}.cls-7{fill:#0b0b0b;}.cls-8{fill:#262626;}.cls-9{fill:#282828;}.cls-10{fill:#424242;}.cls-11{fill:#313131;}.cls-12{fill:#555;}.cls-13{fill:#222;}</style></defs><g id="objects"><path class="cls-1" d="M35.73,143.79c-.5-.29-1.01-.58-1.51-.87-1.04-.81-2.09-1.62-3.13-2.42-3.66-3.12-3.37-7.21-2.76-11.36.16-.43.48-.65.94-.64,1.68,1.29,1.76,3.38,2.44,5.13,1.18,3.02,2.61,5.87,4.5,8.49.12.64.02,1.21-.48,1.67Z"/><path class="cls-8" d="M52.94,132.53c-1,.79-1.48,1.86-1.63,3.1-1.22,1.33-1.07,3.05-1.37,4.66-.65,3.54-2.36,6.15-6.26,6.68-.66-1.67.75-2.36,1.65-3.16,2.47-2.22,2.93-4.73,1.64-7.75-1.22-2.88-2.31-5.84-2.07-9.08,1.04-6.98-2.29-13.54-1.76-20.52.78-10.14,1.17-20.31,1.73-30.46.07-1.27.12-2.68,1.72-3.19.95,1.09.6,2.29.26,3.48.12,12.49-1.83,24.9-1.55,38,1.73-1.4,2.57-2.76,3.23-4.26,1.07-.85,1.88-1.88,2.28-3.2,2.87-3.67,5.75-7.33,8.62-11,5.59-6.19,10.96-12.55,14.22-20.37.88-1.57,1.69-3.19,2.64-4.71,2.24-3.56,6.22-4.83,9.78-3.2,3.69,1.69,5.42,5.83,3.99,9.81-.78,2.18-1.74,4.31-2.62,6.46-1.84,3.13-3.69,6.26-5.53,9.39-2.85,3.69-5.69,7.38-8.54,11.08-8.13,8.47-14.53,18.19-20.47,28.24Z"/><path class="cls-13" d="M28.71,128.72c-1.69-2.98-3.02-6.17-5.29-8.81-1.79-4.49-5.39-7.63-8.34-11.27-1.88-2.32-4.09-4.41-5.27-7.24-.83-1.33-1.09-3.02-2.52-3.97l.05.07c-1.12-5.61,2.82-10.52,8.38-10.49,1.61,0,2.64.84,3.54,2.01,1.33,1.73,2.48,3.61,4.15,5.07,1.32,1.01,2.28,2.32,3.04,3.79.61,2.27,3.43,2.88,3.96,5.23.67,7.48.26,14.96.25,22.44,0,1.16-.2,2.33-1.17,3.17h-.39s-.39-.01-.39-.01Z"/><path class="cls-9" d="M29.56,102.05c-1.5-1.04-3.15-1.97-3.11-4.16.85.75,1.7,1.49,3.14,2.75,1.27-19.29,2.51-38.01,3.74-56.73,1.08-.97.08-2.44.84-3.49,5.21-4.55,10.88-3.84,13.78,1.73-.01,4.15.09,8.3-.05,12.45-1.81,1.17-2.52-.72-3.55-1.4-5.02-3.31-9.01-1.74-9.88,4.17-1.14,7.77-.83,15.65-1.39,23.47-.4,5.47-1.09,10.93-1.03,16.44.02,1.55-.4,3.12-1.29,4.48-.32.41-.71.5-1.19.3Z"/><path class="cls-5" d="M47.41,54.85c.05-4.44.09-8.88.14-13.32-1.81-3.02-.96-6.36-1.15-9.57.18-2.45.15-4.91.06-7.37-.15-4.13-2.04-6.55-5.06-6.64-3.64-.1-5.69,2.1-6.03,6.58-.17,2.19-.11,4.4.01,6.6-.2,3.23.73,6.59-1.15,9.61-.13,1.1.37,2.38-.91,3.15.06-10.22-.11-20.45.88-30.64.6-.59.39-1.46.71-2.15.66-2.77,2.36-4.57,5.18-4.98,3.93-.57,5.21,2.53,6.76,5.18.59.82-.07,1.98.76,2.73,1.09,14.1,1.27,28.22.42,42.33-.4,6.64.16,13.33-1.16,19.91-.09-1.09-.18-2.17-.27-3.26-1.41-6.13-2.26-12.24.81-18.18Z"/><path class="cls-4" d="M23.41,94.1c-1.86-.65-2.69-2.3-3.77-3.76-2.41-3.28-8.77-2.78-10.33.98-.81,1.96-2.29,3.83-1.97,6.19-1.21-1.03-1.85-2.39-2.27-3.87-.37-1.12-1.04-2.1-1.53-3.17-2.2-4.71.62-10.12,5.79-10.89,2.18-.32,4.1.45,5.53,2.24,1.13,1.41,1.69,3.22,3.14,4.4,1.81,2.63,3.61,5.25,5.42,7.88Z"/><path class="cls-6" d="M17.99,86.22c-1.04-.14-1.52-.88-1.96-1.72-1.38-2.63-3.64-4.57-6.51-4.05-2.99.55-4.92,3.24-6.76,5.62-.92,1.19.71,1.78.8,2.77.17,1.69,1.73,2.97,1.5,4.79-2.25-2.78-3.73-5.95-4.73-9.36-1.37-6.67,1.52-10.49,7.51-10.06,2,.14,3.36,1.14,4.49,2.64,1.88,3.12,3.77,6.25,5.65,9.37Z"/><path class="cls-12" d="M47.62,14.05c-.95-.55-.79-1.49-.84-2.35-.9-1.2-.89-2.66-1.19-4.03-.5-2.25-1.36-4.36-4.04-4.53-2.87-.19-4.47,1.52-5.31,4.14-.46,1.46-.77,2.96-1.22,4.42-.03.65-.17,1.24-.82,1.57-.2-2.75-.16-5.5.54-8.18C35.57,1.96,37.66,0,40.9,0c3.25,0,5.36,1.97,6.15,5.09.75,2.93.77,5.95.56,8.96Z"/><path class="cls-3" d="M46.01,127.94c-.51,3.02,1.04,5.57,2.15,8.11,1.8,4.14.32,6.92-3.02,9.2-.67.45-1.24.92-1.43,1.73-3.5,1.05-6.07-.21-7.96-3.18l.05-1.7c6.15-2.69,7.82-8.3,9.18-14.11.33-.31.68-.33,1.04-.05Z"/><path class="cls-7" d="M45.22,127.94c-.21,8.34-3.35,13.06-9.45,14.16-4.17-3.48-5.29-8.39-6.29-13.36.02-8.9.04-17.79.07-26.69.25,0,.49,0,.74-.01,3.16,1.04,4.37,3.98,6.1,6.36,1.53,2.11,2.72,4.46,4.1,6.69.47.76.96,2.02,1.88,1.79,4.35-1.09,3.19,2.06,3.19,4.11,0,2.32.45,4.67-.33,6.95Z"/><path class="cls-13" d="M45.22,127.94c-.03-3.25-.04-6.51-.09-9.76,0-.22-.23-.43-.55-.98-1.91,2.33-3.04,1.94-4.47-.73-2.74-5.13-5.85-10.1-9.81-14.43,1.17-13.6,2.31-27.2,2.42-40.87.02-2.19.38-4.4.81-6.56.9-4.48,7.26-5.8,11.61-2.39.9.7,1.53,1.75,2.28,2.64-1.09,6.02-.37,12.13-.81,18.18-1.46,4.52-.64,9.25-1.18,13.89-.97,8.25-1.51,16.72-.72,24.95.51,5.35,1.27,10.67,1.3,16.07-.26,0-.52,0-.78,0Z"/><path class="cls-2" d="M47.52,31.33c0,3.4.02,6.81.03,10.21-4.2-4.29-8.7-3.54-13.31-.78.02-3.4.04-6.8.05-10.2,2.22-3.85,5.18-5.08,9.35-3.9,2.37.67,3.69,2.2,3.88,4.68Z"/><path class="cls-11" d="M47.52,31.33c-3.29-5.32-7.45-5.56-13.23-.78,0-2.22-.14-4.45,0-6.66.29-4.59,3.56-7.69,7.61-7.36,3.12.25,5.58,3.6,5.64,7.75.03,2.35-.01,4.71-.02,7.06Z"/><path class="cls-10" d="M35.02,11.7c.08-2.2-.27-4.43.86-6.53,1.15-2.15,3.04-3.24,5.26-3.26,2.31-.01,4.08,1.13,4.99,3.6.76,2.07.55,4.11.65,6.18-.65-.41-1.52-.68-1.93-1.26-3.3-4.69-5.72-4.72-9,0-.29.41-.55.84-.82,1.27Z"/></g></svg>