<?xml version="1.0" encoding="UTF-8"?><svg id="Calque_2" width="90.6px"
 xmlns="http://www.w3.org/2000/svg" viewBox="0 0 82.8 187.37"><defs><style>.cls-1{fill:#444;}.cls-2{fill:#3c3c3c;}.cls-3{fill:#1c1c1c;}.cls-4{fill:#525252;}.cls-5{fill:#3d3d3d;}.cls-6{fill:#4e4e4e;}.cls-7{fill:#515151;}.cls-8{fill:#666;}.cls-9{fill:#424242;}.cls-10{fill:#6a6a6a;}.cls-11{fill:#4b4b4b;}.cls-12{fill:#484848;}</style></defs><g id="objects"><path class="cls-8" d="M19.88,183.67c-.18.44-.36.89-.54,1.33-.2.19-.41.39-.61.58-2.21,2.45-5,2.01-7.38.8-2.57-1.3-3.15-3.91-2.48-6.72.32-1.38.68-2.73,1.43-3.95l-.03.08c.33-.28.66-.29.99,0,.57.75.63,1.65.74,2.54.41,3.18,2.22,4.74,5.43,4.7.88-.01,1.81-.25,2.46.63Z"/><path class="cls-2" d="M3.85,53.18c.28-.25.57-.51.85-.76.96-.92,2.1-1.6,3.18-2.35l-.02.02c.56-1.03,1.34-1.83,2.38-2.37l-.02.02c.54-1.04,1.35-1.82,2.36-2.38h-.01c.54-.83,1.11-1.66,1.99-2.21,1.08-.64,1.58-1.75,2.23-2.74.22-.3.44-.59.67-.88,4.01-4.03,5.4-9.5,7.87-14.37,1.18-2.32,2.07-4.8,3.32-7.1,1.13-2.08,1.51-4.01.34-6.29-1.59-3.09-.38-5.84,1.72-8.26,2.05-2.38,4.6-2.64,7.5-1.82,2.75.78,4.97,2.24,6.76,4.43,2.89,4.47,7.67,6.79,11.53,10.15.59.52,1.21.95,1.54,1.69l-.04-.03c1.49.86,2.81,1.92,3.9,3.26l-.05-.05c3.73,2.28,6.26,5.86,9.45,8.72l-.05-.05c1.31.25,1.96,1.21,2.5,2.29l-.04-.03c1.13.46,1.9,1.29,2.41,2.37l-.03-.03c1.07.53,1.95,1.26,2.34,2.45l-.04-.05c1.13.94,1.96,2.11,2.62,3.41,1.23,3.08,1.57,6.2-.84,8.78-2.56,2.74-5.81,2.43-9.04,1.23-3.64-2.36-5.68-6.32-8.98-9.04l.09.07c-1.93-.66-2.99-2.26-4.11-3.8h.02c-1.62-.74-2.94-1.85-3.95-3.34-.74-1.16-2.46-1.4-2.81-2.94-.9-5.07-3.42-9.27-7.13-12.74-2.06-1.93-4.61-2.94-7.06-1.01-2.42,1.91-1.67,4.37-.23,6.68.89,1.44,1.84,2.86,2.05,4.61.03.96-.25,1.88-.4,2.82-.29.7-.39,1.51-1.15,1.92l.06-.07c-1.54,4.5-2.98,9.05-6.25,12.69l.04-.06c-2.08,3.84-4.8,7.19-7.93,10.22l.04-.04c-2.34,2.65-3.73,6.18-7.17,7.83l.08-.06c-3.38,3.48-7.51,4.49-11.96,2.88-4.67-1.68-5.7-6.57-2.71-11.21l-.04.05c.36-1.16,1.33-1.78,2.2-2.48Z"/><path class="cls-7" d="M44.84,6.8c-2.5-1.74-4.55-4.09-7.88-4.6-2.87-.44-4.89.59-6.34,2.77-1.39,2.09-2.45,4.55-.57,6.84,1.53,1.87,1.14,3.39.19,5.29-3.28,6.61-6.39,13.31-9.63,19.94-.74,1.51-1.7,2.93-3.52,3.38-.41-1.77.84-2.94,1.63-4.22,2.79-4.45,4.53-9.39,6.69-14.13,1.74-3.83,2.06-8.01,1.73-12.24-.25-3.15-.2-6.3,2.88-8.35l-.09.07c3.8-3,7.34-1,10.9.57l.19.18.25-.07c1.86,1,4.06,1.74,3.57,4.58Z"/><path class="cls-10" d="M70.69,49.24c.99.26,1.97.61,2.97.75,5.03.73,7.94-2.23,7.17-7.28-.15-1.01-.44-2-.67-2.99,2.38,1.78,3.28,5.38,2.13,8.96-.89,2.77-2.65,4.44-5.8,4.1-.89-.1-1.84.2-2.67-.34-.35-.27-.69-.55-1.04-.82-.65-.83-2.66-.47-2.1-2.37Z"/><path class="cls-6" d="M41.01,35.76c.07-1.64-.75-3.02-1.38-4.44-.57-1.27-1.23-.19-1.85.06.23-.87.46-1.73.7-2.6.29-.46.2-1.02.4-1.5,2.09-4.89,3.28-5.22,7.34-1.89,2.09,1.71,4.68,2.98,5.6,5.83.79,1.13,2.92.64,3.08,2.53-1.71,2.02.28,3.85.34,5.79.05,1.65.85,3.26.62,4.99-2,.21-1.93-1.54-2.12-2.6-.6-3.44-2.96-2.35-5.08-2.31-2.45.05-3.48,1.2-3.66,3.55-.15,1.87.55,3.94-1.12,5.51-1.39-4.2-.77-8.86-2.87-12.9Z"/><path class="cls-3" d="M51.82,31.21c-2.18-1.8-4.44-3.52-6.52-5.43-1.99-1.84-3.63-3.04-4.95.6-.33.91-1.23,1.6-1.87,2.39-.97-1.68-1.9-3.39-2.91-5.05-1.38-2.25-1.28-4.4.18-6.56,1.43-2.12,3.6-1.96,5.63-1.59,4.61.84,11.05,10.61,10.45,15.63Z"/><path class="cls-7" d="M14.72,43.67c.13-.44.25-.89.38-1.33.66-.64,1.33-1.27,1.99-1.91.23,1.83-.86,2.69-2.37,3.24Z"/><path class="cls-1" d="M38.26,102.61c.92-3.6,1.84-7.2,2.76-10.81,2.1-3.99,1.98-8.47,2.84-12.74,1.14-5.77.32-11.6.49-17.4.15-5.11,2.55-7.32,7.56-6.64,3.09.42,4.96,2.3,4.98,5.46.07,9.46.36,18.93-1.04,28.34-.33,5.02-2.73,9.55-3.39,14.49-.45.87-.91,1.73-1.36,2.6-1.39-1.34-.76-2.9-.43-4.39.74-3.29,1.61-6.56,2.42-9.84.62-2.5,1.24-5.01-2.3-5.87-3.65-.88-5.91.31-6.73,3.67-.87,3.54-1.91,7.02-3.22,10.41-.45,1.16-.44,3.02-2.56,2.7Z"/><path class="cls-12" d="M55.85,88.83c.27-8.83.95-17.65.75-26.51-.06-2.61-.63-4.69-2.99-5.84-2.56-1.25-5.06-.35-7.44.75-1.45.67-1.4,2.05-1.4,3.37,0,4.96.03,9.91-.03,14.87-.01,1.24.48,2.66-.88,3.59,0-10.14.01-20.27.02-30.41.04-.65.1-1.3.1-1.96q.09-8.11,7.8-8.74c1.41-.12,2.07.52,2.45,1.9.44,1.58.26,3.4,1.63,4.66,1.27,5.1,1.4,10.3,1.41,15.51.01,8.35.3,16.71-.59,25.04-.14,1.28.03,2.64-.82,3.76Z"/><path class="cls-5" d="M38.26,102.61c2.8-4.32,3.59-9.33,4.92-14.16.85-3.08,4.73-4.95,8.49-3.73,2.97.96,3.61,2.84,2.78,6.06-1.29,4.99-3.17,9.89-3.36,15.14-1.92,8.45-5.12,16.5-7.9,24.67-.37,1.09-.67,2.21-1,3.31-4.62,8.96-7.86,18.45-10.97,28-.32.98-.79,1.9-1.19,2.85-1.09,1.12-1.23,2.63-1.64,4.03l.06-.09c-1.15,2.12-2.6,3.73-5.25,4-4.45.45-7.27-2.2-6.94-6.64.22-2.91,1.55-5.49,2.37-8.22.6-1.98,1.32-3.92,1.66-5.97.99-5.94,4.17-11.12,5.79-16.85,1.71-2.98,3.06-6.1,3.91-9.44,1.96-4.33,3.58-8.78,4.62-13.42,1.21-3.18,2.41-6.36,3.62-9.54Z"/><path class="cls-9" d="M20.32,151.87c.42,2.04-.46,3.84-1.05,5.69-.52,1.61-1.32,3.18-1.54,4.83-.4,3.06-2.07,6.67,1.77,8.71,3.51,1.87,6.43.13,8.98-2.38-.72,2.91-2.01,5.53-3.87,7.88-1.02.56-1.86,1.4-3,1.81-4.61,1.66-8.56-1.29-8.19-6.19.08-1.03.3-2.06.62-3.05.09-.66.18-1.31.26-1.97,2.14-4,3.66-8.22,4.62-12.64l1.4-2.68Z"/><path class="cls-11" d="M14.03,169.16c.03.9.04,1.8.11,2.7.39,5.44,2.62,6.93,7.86,5.32.85-.26,1.73-.4,2.6-.59-.27,1.21-.86,2.24-1.81,3.05-4.98,3.75-10.07,2.42-11.16-2.8-.36-1.71.64-2.98.85-4.49.17-1.23.65-2.32,1.55-3.19Z"/><path class="cls-4" d="M12.47,172.35c-.5,5.74.83,8.06,4.82,8.76,2.13.38,3.54-1.46,5.5-1.48-.56,1.64-1.55,2.97-2.9,4.04-6.15,1.73-9.76-1.38-8.94-8.05.21-1.23.58-2.39,1.52-3.27Z"/><path class="cls-9" d="M28.41,168.79c-.24-1.66.03-3.12,1.64-4.03-.06,1.54-.74,2.83-1.64,4.03Z"/></g></svg>