<?xml version="1.0" encoding="UTF-8"?><svg id="Calque_1" width="35px" xmlns="http://www.w3.org/2000/svg" viewBox="0 0 170.74 71.83"><defs><style>.cls-1{fill:#292929;}.cls-2{fill:#414141;}.cls-3{fill:#454545;}.cls-4{fill:#5a5a5a;}.cls-5{fill:#3b3b3b;}.cls-6{fill:#aaa;}.cls-7{fill:#1d1d1d;}.cls-8{fill:#323231;}.cls-9{fill:#5d5d5d;}.cls-10{fill:#303030;}.cls-11{fill:#464646;}.cls-12{fill:#666565;}.cls-13{fill:#3a3b3a;}.cls-14{fill:#252525;}.cls-15{fill:#353535;}.cls-16{fill:#4b4b4b;}.cls-17{fill:#535353;}.cls-18{fill:#4c4c4c;}.cls-19{fill:#171718;}</style></defs><path class="cls-16" d="M14.57,26.65c-.51,0-1.03-.01-1.54-.02-4.64,3.26-5.56,5.9-3.09,9.02,1.26,1.6,3.15,2.11,4.98,2.7,1.39.12,2.78.25,4.17.37-3.79.82-7.54.55-11.25-.5-1.18-.72-2.65-.71-3.76-1.74-1.64-1.53-2.47-3.23-2.06-5.48.39-2.13,1.74-3.3,3.72-4.01.84-.3,1.84.11,2.55-.62.31-.19.62-.37.92-.56,1.78-.01,3.57-.02,5.35-.03.24.19.32.39.24.58-.08.2-.16.29-.24.29h0Z"/><path class="cls-9" d="M8.3,26.37c-.63,1.02-1.85.82-2.75,1.29-3.27,1.69-3.8,5.2-1.05,8.07.95.99,2.22,1.67,3.35,2.49-1.78.28-3.35-.44-4.85-1.2C.98,36-.08,34.28,0,31.95c.13-3.34,2.59-4.53,5.17-5.62,1.04.01,2.08.03,3.12.04h0Z"/><path class="cls-3" d="M14.57,26.65v-.87c.08-.17.15-.35.2-.53,1.52-.02,3.03-.04,4.55-.07-1.26,1.53-3.37.33-4.75,1.48h0Z"/><path class="cls-1" d="M114.07,55.61c.55-.5,1.09-.99,1.64-1.49,1.18-1.08,1.72-3.22,4.03-2.41.48,2.31-1.55,3.1-2.74,4.32-1.83,1.87-3.73,3.63-4.41,6.31-.84,3.32.32,5.22,3.7,6,2.63.61,4.95-.14,6.92-1.8,3.78-3.18,7.31-6.64,11.26-9.66,2.36-1.8,2.35-5.28.44-8.11-1.46-2.15-4.1-2.43-6.98-1.02-2.46,1.21-4.08,4.19-7.42,3.54-.1-2.47,2.09-2.96,3.55-4.05,1.76-1.31,3.47-2.74,5.6-3.46l-.08.06c2.48-1.87,4.79-3.99,7.6-5.41,1.9-.28,2.68-2.59,4.73-2.61,2.73.29,5.35-.42,7.99-.94,1.37-.27,2.72-.89,4.1-.06-.85,1.92-.59,3.71-.14,5.8.67,3.05-.87,5.79-3.3,7.85-1.94,2.06-4.21,3.67-6.72,4.95l.05-.05c-5.48,4.59-11.54,8.41-17.17,12.8-.95.09-.71,1.18-1.31,1.56-5.26,6.66-14.03,4.67-15.95-2.01-1.03-3.58.36-6.91,4.62-10.15v.04Z"/><path class="cls-18" d="M119.48,18.55c-.99.4-1.83.16-2.58-.56-1.97-.77-4.14-.88-6.04-1.84-1.03-.26-2.24.12-3.06-.86-.59-.5-1.43-.91-.61-1.87,1.73-.82,3.3.09,4.9.51,2.56.67,5.12,1.03,7.68.19,3.94-1.29,4.89-5,1.82-7.76-3.55-3.19-7.97-4.21-12.64-3.82-2.56.21-3.77,1.94-4.01,4.49-.12,1.28.49,3-1.49,3.55-2.39-1.93-1.99-4.48-1.03-6.74,1-2.37,3.14-3.8,5.85-3.83,3.22-.03,6.46,0,9.42,1.58l-.06-.03c3.15.46,5.86,1.97,8.51,3.61l-.08-.07c1.79.43,3.32,1.3,4.57,2.65,1.23,1.14,2.73,1.96,3.78,3.31,1.11,6.53-3.73,10.94-9.69,8.68-1.73-.66-3.51-.73-5.24-1.2h0Z"/><path class="cls-17" d="M119.48,18.55c2.12-1.07,4.05,0,6.03.54,4.41,1.22,8.4-1.98,8.38-6.74,0-.52-.02-1.04-.03-1.56,4.21-.32,7.53,1.65,9.94,4.73,1.77,2.27,1.03,4.95-.79,7.08,1.38-.67,2.75-.81,3.89.65-1.74,2.56-4.33,1.25-6.59,1.44-1.43-.2-2.86.27-4.3.07-1.5-.4-2.86-1.26-4.46-1.38-1.37-.32-2.58-.93-3.53-1.99l.05.07c-1.64-.43-3.29-.79-4.79-1.64-1.39-.06-2.73-.29-3.82-1.26h.02Z"/><path class="cls-4" d="M146.78,23.07c-1.27-.05-2.55-.1-3.72-.14-.8-1.18.15-1.82.36-2.61.73-2.77.36-4.92-2.63-6.32-2.3-1.08-4.45-2.49-6.92-3.22-1.66-.23-2.68-1.46-3.84-2.48,1.12-.64,2.18-.86,3.05.41.34.58.89.63,1.48.57,1.32.61,2.77.92,4,1.74l-.05-.03c1.85.83,3.75,1.55,5.38,2.8,1.07.86,2.16,1.67,3.65,1.53,1.2.43,2.55.58,3.31,1.81,1.08.9,2.36,1.35,3.73,1.57,1.64.59,3.27,1.16,5.02,1.47,1.06.18,2.92.05,2.95,2.06-.71.6-1.55.7-2.43.66-3.07-.74-6.06-1.04-9.02.58-1.38.76-2.98.89-4.31-.42v.02Z"/><path class="cls-18" d="M169.22,30.84c-.65,1.03-1.31,2.06-1.96,3.1-.2.22-.39.44-.59.66-.35.72-.66,1.52-1.7.87-.67-1.93.99-3.44.95-5.28-.04-1.69.27-3.42-1.14-4.77-1.02-1.89-4.11-.85-4.71-3.33.9-.04,1.8-.08,2.7-.13.39.03.78.06,1.18.09,5.47,1.68,6.68,3.69,5.27,8.79Z"/><path class="cls-14" d="M119.62,51.58c.23-.18.45-.36.68-.54,2.48.06,3.97-1.86,5.63-3.15,2.64-2.05,5.54-2.89,8.29-1.4,2.87,1.56,2.88,5.1,3.28,7.98.25,1.82-1.76,2.87-3.08,3.77-3.7,2.51-6.79,5.68-10.04,8.67-2.02,1.86-4.43,2.99-7.06,2.73-5.91-.59-7.71-4.98-4.62-10.25,1.81-3.1,5.47-4.46,6.93-7.81h0Z"/><path class="cls-2" d="M135.64,24.16c1.35-.19,2.7-.37,4.05-.56,1.84,2.37,4.94,2.03,7.27,3.37,1.29.74,3.13.54,3.83,2.29-2.06,3.68-5.31,5.77-9.25,6.94-1.36,1-1.86,3.19-4.1,2.96,1.05-2.38-.98-1.46-1.71-1.42-4.37.22-8.74.47-13.12.15.41-2.3,2.29-1.59,3.66-1.69,1.81-.14,3.65.21,5.42-.51,3.99-1.63,4.7-5.84,1.43-8.64-.59-.51-1.28-.91-1.54-1.71.8-1.46,2.34-.76,3.49-1.18.19,0,.39-.01.58-.02v.02Z"/><path class="cls-19" d="M141.53,36.22c2.98-2.24,5.95-4.48,8.93-6.73,1.42-2.4,3.48-3.87,6.25-4.31,3.76,2.08,4.27,4.12,2.13,8.64-1.35,1.2-2.79,2.05-4.69,1.32-3.02.58-6.04,1.18-9.06,1.74-1.26.23-2.57.58-3.56-.67h0Z"/><path class="cls-8" d="M154.16,35.14c1.33-.48,2.66-.96,3.98-1.44,1.84-.89,3.04-3.35,5.66-2.32,1.78,3.58-.87,5.65-2.72,8-.31.47-.62.95-.93,1.42-1.11.4-1.91,1.17-2.54,2.14-2.61,1.88-5.21,3.76-7.82,5.63,2.09-3.43,5.29-6.52,1.91-11.11-.84-1.14,1.97-1.11,2.45-2.32h.01Z"/><path class="cls-11" d="M106.82,13.76l-2.68-1.93-.26-1.16c.05-.52.16-1.04.15-1.55-.19-6.65,3.04-9.34,9.41-7.41,3.36,1.02,7.11,1.14,9.59,4.55,2.31,3.17,1.62,7.31-2.13,8.69-2.77,1.02-5.59.9-8.43.14-1.87-.49-3.64-1.45-5.65-1.32h0Z"/><path class="cls-10" d="M26.41,24.65c11.12-1.98,22.35-2.02,33.59-1.86,8.7-.3,17.37.52,26.06.73,5.71.14,11.42.43,17.12.64.38.04.81.01,1.11.28,2.36,2.1,6.07,3.66,4.97,7.6-1.06,3.78-4.06,5.9-8.14,6.17-12.52-.48-25.04-.97-37.56-1.41-1.25-.04-2.59-.6-3.76.36-7.5.76-15.03.56-22.55.69-3.45.4-6.92.19-10.39.55-4.28.45-6.36-1.77-6.84-6.11-.41-3.72,1.55-6.35,5.39-7.16.4-.09.71-.23,1-.48Z"/><path class="cls-5" d="M104.23,24.66c-14.74-.62-29.49-1.25-44.23-1.87,1.36-.7,2.82-.42,4.23-.37,17.98.58,35.96,1.19,53.95,1.8,4.54-.15,9.08-.29,13.57.69,1.45,1.83,5.07,1.41,4.64,5.36-.51,4.7-2.56,6.99-7.36,7.08-2.14.04-4.41-1.04-6.42.57-6.08.86-12.2.8-18.3.64-14.83-.39-29.67-.93-44.5-1.4,1.11-1.44,2.66-.78,4.01-.73,12.8.41,25.6.89,38.4,1.34,4.09-.82,8.17-1.67,12.38-1.36,1.6.12,3.1-.41,4.48-1.2,1.91-1.09,4.34-2,3.81-4.8-.51-2.66-2.8-3.66-5.21-4.06-2.84-.47-5.73-.32-8.6-.49-1.68-.1-3.43.04-4.84-1.19h-.01Z"/><path class="cls-13" d="M26.41,24.65c-5.27,2.98-6.27,5.03-4.97,9.39,1.01,3.4,3.27,4.67,6.5,3.98,3.13-.68,6.2-.42,9.31-.17-6.01,1.15-12.07,1.08-18.15.88-1.23.41-2.48.13-3.73.11-6.02-2.36-7.05-7.05-2.7-12.28.53-.34,1.14-.3,1.73-.33,1.44-1.27,3.43-.02,4.92-1.05,2.31-.9,4.71-.61,7.09-.53Z"/><path class="cls-14" d="M156.09,25.77c-1.88,1.24-3.75,2.48-5.63,3.72-3.48-1.36-6.92-2.86-10.46-4.03-1.79-.59-1.18-1.08-.3-1.85,2.36-.26,4.82.83,7.09-.53,1.82.16,3.5,0,5.14-1.09,2.65-1.76,5.44-.92,8.14.1,1.66,1.17,4.14.56,5.43,2.51.63,1.58,1.24,3.15-.11,4.67-.37.15-.91.16-.99-.17-1.23-5.02-4.76-4.18-8.31-3.32h0Z"/><path class="cls-6" d="M133.28,24.01c-.49-.49-.98-.98-1.47-1.47,1.56-.11,2.83.44,3.83,1.63h.05c-.84.56-1.65.58-2.41-.16Z"/><path class="cls-17" d="M133.28,24.01c.8.05,1.61.1,2.41.15-1.1,1.39-2.64.51-3.96.75-4.52-.23-9.04-.46-13.56-.69,5.02-1,10.07,0,15.11-.21Z"/><path class="cls-12" d="M169.22,30.84c.98-4.57-1.72-6.94-5.27-8.8,2.85-.77,4.73.64,5.99,2.93,1.12,2.03,1.23,4.13-.72,5.87Z"/><path class="cls-2" d="M164.62,29.28c1.46-1.34.68-3.11.89-4.68,3.01,3.76,1.27,7.37-.35,10.99-1.1,1.53-2.32,2.95-4.06,3.8,1.18-2.51,2.97-4.81,2.61-7.84-.41-1.04.08-1.72.92-2.26h-.01Z"/><path class="cls-7" d="M164.62,29.28c-.31.75-.61,1.51-.92,2.26-2.07.16-3.38,2.29-5.56,2.16,1.8-4.72,1.43-6.14-2.05-7.93,5.69-3.39,8.32-2.31,8.53,3.5h0Z"/><path class="cls-15" d="M104.23,24.66c4.31.14,8.62.37,12.94.38,2.62,0,4.57,1.31,6.13,3.04,1.65,1.83,1.91,4.18-.25,5.88-2.53,2-5.18,4.06-8.76,3.56-4.04-.56-8.04,1.04-12.08.23,1.34-.97,2.72-1.89,4.02-2.9,3.19-2.49,3.29-4.74.31-7.3-.97-.83-2.34-1.29-2.3-2.9h0Z"/><path class="cls-3" d="M14.93,38.35c-5-.1-7.57-2.08-7.39-6.44.13-3.08,1.94-5.31,5.49-5.28-3.2,6.59-3.01,7.77,1.9,11.72Z"/></svg>