<?xml version="1.0" encoding="UTF-8"?>
<svg id="Calque_2" width="90.6px" xmlns="http://www.w3.org/2000/svg" version="1.1" viewBox="0 0 90.6 187.4">
  <!-- Generator: Adobe Illustrator 29.1.0, SVG Export Plug-In . SVG Version: 2.1.0 Build 142)  -->
  <defs>
    <style>
      .st0 {
        fill: #444;
      }

      .st1 {
        fill: #3c3c3c;
      }

      .st2 {
        fill: #1c1c1c;
      }

      .st3 {
        fill: #525252;
      }

      .st4 {
        fill: #3d3d3d;
      }

      .st5 {
        fill: #4e4e4e;
      }

      .st6 {
        fill: #515151;
      }

      .st7 {
        fill: #666;
      }

      .st8 {
        fill: #424242;
      }

      .st9 {
        fill: #6a6a6a;
      }

      .st10 {
        fill: #4b4b4b;
      }

      .st11 {
        fill: #484848;
      }
    </style>
  </defs>
  <g id="objects">
    <path class="st7" d="M23.8,3.7c-.6.9-1.6.6-2.5.6-3.2,0-5,1.5-5.4,4.7-.1.9-.2,1.8-.7,2.5-.3.3-.7.3-1,0h0c-.8-1.1-1.1-2.5-1.4-3.9-.7-2.8,0-5.4,2.5-6.7,2.4-1.2,5.2-1.6,7.4.8.2.2.4.4.6.6.2.4.4.9.5,1.3h0Z"/>
    <path class="st1" d="M7.7,134.1c-.9-.7-1.8-1.3-2.2-2.5h0c-3-4.6-2-9.5,2.7-11.2,4.4-1.6,8.6-.6,12,2.9h0c3.4,1.6,4.8,5.1,7.2,7.8h0c3.1,3,5.9,6.3,7.9,10.2h0c3.3,3.6,4.7,8.1,6.2,12.6h0c.8.3.9,1.2,1.2,1.9.2.9.4,1.9.4,2.8-.2,1.8-1.2,3.2-2,4.6-1.4,2.3-2.2,4.8.2,6.7,2.5,1.9,5,.9,7.1-1,3.7-3.5,6.2-7.7,7.1-12.7.4-1.5,2.1-1.8,2.8-2.9,1-1.5,2.3-2.6,4-3.3h0c1.1-1.5,2.2-3.1,4.1-3.8h0c3.3-2.7,5.3-6.6,9-9,3.2-1.2,6.5-1.5,9,1.2,2.4,2.6,2.1,5.7.8,8.8-.7,1.3-1.5,2.5-2.6,3.4h0c-.4,1.1-1.3,1.9-2.3,2.4h0c-.5,1-1.3,1.9-2.4,2.3h0c-.5,1.1-1.2,2-2.5,2.3h0c-3.2,2.8-5.7,6.4-9.5,8.7h0c-1.1,1.3-2.4,2.4-3.9,3.2h0c-.3.7-1,1.1-1.5,1.7-3.9,3.4-8.6,5.7-11.5,10.1-1.8,2.2-4,3.6-6.8,4.4-2.9.8-5.5.6-7.5-1.8-2.1-2.4-3.3-5.2-1.7-8.3,1.2-2.3.8-4.2-.3-6.3-1.2-2.3-2.1-4.8-3.3-7.1-2.5-4.9-3.9-10.3-7.9-14.4-.2-.3-.5-.6-.7-.9-.6-1-1.2-2.1-2.2-2.7-.9-.5-1.4-1.4-2-2.2h0c-1-.6-1.8-1.3-2.4-2.4h0c-1-.5-1.8-1.3-2.4-2.3h0c-1.1-.7-2.2-1.4-3.2-2.3-.3-.2-.6-.5-.8-.8h0Z"/>
    <path class="st6" d="M48.7,180.5c.5,2.8-1.7,3.6-3.6,4.6h-.2c0,0-.2.1-.2.1-3.6,1.6-7.1,3.6-10.9.6h0c-3.1-2-3.1-5.1-2.9-8.3.3-4.2,0-8.4-1.7-12.2-2.2-4.7-3.9-9.7-6.7-14.1-.8-1.3-2-2.5-1.6-4.2,1.8.5,2.8,1.9,3.5,3.4,3.2,6.6,6.3,13.3,9.6,19.9.9,1.9,1.3,3.4-.2,5.3-1.9,2.3-.8,4.8.6,6.8,1.5,2.2,3.5,3.2,6.3,2.8,3.3-.5,5.4-2.9,7.9-4.6h0Z"/>
    <path class="st9" d="M74.6,138.1c-.6-1.9,1.4-1.5,2.1-2.4.3-.3.7-.5,1-.8.8-.5,1.8-.2,2.7-.3,3.2-.3,4.9,1.3,5.8,4.1,1.2,3.6.2,7.2-2.1,9,.2-1,.5-2,.7-3,.8-5-2.1-8-7.2-7.3-1,.1-2,.5-3,.8h0Z"/>
    <path class="st5" d="M44.9,151.6c2.1-4,1.5-8.7,2.9-12.9,1.7,1.6,1,3.6,1.1,5.5.2,2.3,1.2,3.5,3.7,3.5,2.1,0,4.5,1.1,5.1-2.3.2-1.1.1-2.8,2.1-2.6.2,1.7-.6,3.3-.6,5,0,1.9-2,3.8-.3,5.8-.2,1.9-2.3,1.4-3.1,2.5-.9,2.9-3.5,4.1-5.6,5.8-4.1,3.3-5.2,3-7.3-1.9-.2-.5-.1-1-.4-1.5-.2-.9-.5-1.7-.7-2.6.6.2,1.3,1.3,1.8,0,.6-1.4,1.5-2.8,1.4-4.4h0Z"/>
    <path class="st2" d="M55.7,156.2c.6,5-5.8,14.8-10.5,15.6-2,.4-4.2.5-5.6-1.6-1.5-2.2-1.6-4.3-.2-6.6,1-1.7,1.9-3.4,2.9-5.1.6.8,1.5,1.5,1.9,2.4,1.3,3.6,3,2.4,5,.6,2.1-1.9,4.3-3.6,6.5-5.4h0Z"/>
    <path class="st6" d="M21,146.9c-.7-.6-1.3-1.3-2-1.9-.1-.4-.2-.9-.4-1.3,1.5.6,2.6,1.4,2.4,3.2Z"/>
    <path class="st0" d="M42.2,84.8c2.1-.3,2.1,1.5,2.6,2.7,1.3,3.4,2.4,6.9,3.2,10.4.8,3.4,3.1,4.5,6.7,3.7,3.5-.9,2.9-3.4,2.3-5.9-.8-3.3-1.7-6.5-2.4-9.8-.3-1.5-1-3.1.4-4.4.5.9.9,1.7,1.4,2.6.7,4.9,3.1,9.5,3.4,14.5,1.4,9.4,1.1,18.9,1,28.3,0,3.2-1.9,5-5,5.5-5,.7-7.4-1.5-7.6-6.6-.2-5.8.6-11.6-.5-17.4-.9-4.3-.7-8.8-2.8-12.7-.9-3.6-1.8-7.2-2.8-10.8h0Z"/>
    <path class="st11" d="M59.8,98.5c.8,1.1.7,2.5.8,3.8.9,8.3.6,16.7.6,25,0,5.2-.1,10.4-1.4,15.5-1.4,1.3-1.2,3.1-1.6,4.7-.4,1.4-1,2-2.5,1.9-5.1-.4-7.7-3.3-7.8-8.7,0-.7,0-1.3,0-2,0-10.1,0-20.3,0-30.4,1.4.9.9,2.3.9,3.6,0,5,0,9.9,0,14.9s0,2.7,1.4,3.4c2.4,1.1,4.9,2,7.4.8,2.4-1.2,2.9-3.2,3-5.8.2-8.9-.5-17.7-.8-26.5h0Z"/>
    <path class="st4" d="M42.1,84.7c-1.2-3.2-2.4-6.4-3.6-9.5-1-4.6-2.7-9.1-4.6-13.4-.9-3.3-2.2-6.5-3.9-9.4-1.6-5.7-4.8-10.9-5.8-16.9-.3-2.1-1.1-4-1.7-6-.8-2.7-2.2-5.3-2.4-8.2-.3-4.4,2.5-7.1,6.9-6.6,2.6.3,4.1,1.9,5.2,4h0c.4,1.3.5,2.8,1.6,3.9.4,1,.9,1.9,1.2,2.9,3.1,9.6,6.4,19,11,28,.3,1.1.6,2.2,1,3.3,2.8,8.2,6,16.2,7.9,24.7.2,5.2,2.1,10.2,3.4,15.1.8,3.2.2,5.1-2.8,6.1-3.8,1.2-7.6-.7-8.5-3.7-1.3-4.8-2.1-9.8-4.9-14.2h0Z"/>
    <path class="st8" d="M24.2,35.5l-1.4-2.7c-1-4.4-2.5-8.6-4.6-12.6,0-.7-.2-1.3-.3-2-.3-1-.5-2-.6-3.1-.4-4.9,3.6-7.9,8.2-6.2,1.1.4,2,1.2,3,1.8,1.9,2.4,3.1,5,3.9,7.9-2.5-2.5-5.5-4.2-9-2.4-3.8,2-2.2,5.7-1.8,8.7.2,1.7,1,3.2,1.5,4.8.6,1.9,1.5,3.7,1,5.7h0Z"/>
    <path class="st10" d="M16.4,15c-.2-1.5-1.2-2.8-.9-4.5,1.1-5.2,6.2-6.6,11.2-2.8.9.8,1.5,1.8,1.8,3.1-.9-.2-1.8-.3-2.6-.6-5.2-1.6-7.5-.1-7.9,5.3,0,.9,0,1.8-.1,2.7-.9-.9-1.4-2-1.5-3.2Z"/>
    <path class="st3" d="M16.4,15c-.9-.9-1.3-2-1.5-3.3-.8-6.7,2.8-9.8,8.9-8.1,1.4,1.1,2.3,2.4,2.9,4-2,0-3.4-1.9-5.5-1.5-4,.7-5.3,3-4.8,8.8h0Z"/>
    <path class="st8" d="M33.9,22.6c-1.6-.9-1.9-2.4-1.6-4,.9,1.2,1.6,2.5,1.6,4Z"/>
  </g>
</svg>