<?xml version="1.0" encoding="UTF-8"?><svg id="Calque_1" width="16px" xmlns="http://www.w3.org/2000/svg" viewBox="0 0 71.86 170.73"><defs><style>.cls-1{fill:#292929;}.cls-2{fill:#454545;}.cls-3{fill:#3a3b3a;}.cls-4{fill:#aaa;}.cls-5{fill:#3b3b3b;}.cls-6{fill:#323231;}.cls-7{fill:#5d5d5d;}.cls-8{fill:#303030;}.cls-9{fill:#464646;}.cls-10{fill:#1d1d1d;}.cls-11{fill:#252525;}.cls-12{fill:#353535;}.cls-13{fill:#414141;}.cls-14{fill:#666565;}.cls-15{fill:#5a5a5a;}.cls-16{fill:#4b4b4b;}.cls-17{fill:#535353;}.cls-18{fill:#171718;}.cls-19{fill:#4c4c4c;}</style></defs><path class="cls-16" d="M26.64,156.17c0,.51-.01,1.03-.02,1.54,3.26,4.64,5.9,5.56,9.02,3.09,1.6-1.26,2.11-3.15,2.7-4.98.12-1.39.25-2.78.37-4.17.82,3.79.55,7.54-.5,11.25-.72,1.18-.71,2.65-1.74,3.76-1.53,1.64-3.23,2.47-5.48,2.06-2.13-.39-3.3-1.74-4.01-3.72-.3-.84.11-1.84-.62-2.55-.19-.31-.37-.62-.56-.92-.01-1.78-.02-3.57-.03-5.35.19-.24.39-.32.58-.24.2.08.29.16.29.24Z"/><path class="cls-7" d="M26.36,162.44c1.02.63.82,1.85,1.29,2.75,1.69,3.27,5.2,3.8,8.07,1.05.99-.95,1.67-2.22,2.49-3.35.28,1.78-.44,3.35-1.2,4.85-1.02,2.02-2.74,3.08-5.07,2.99-3.34-.13-4.53-2.59-5.62-5.17.01-1.04.03-2.08.04-3.12Z"/><path class="cls-2" d="M26.64,156.17h-.87c-.17-.08-.35-.15-.53-.2-.02-1.52-.04-3.03-.07-4.55,1.53,1.26.33,3.37,1.48,4.75Z"/><path class="cls-1" d="M55.6,56.67c-.5-.55-.99-1.09-1.49-1.64-1.08-1.18-3.22-1.72-2.41-4.03,2.31-.48,3.1,1.55,4.32,2.74,1.87,1.83,3.63,3.73,6.31,4.41,3.32.84,5.22-.32,6-3.7.61-2.63-.14-4.95-1.8-6.92-3.18-3.78-6.64-7.31-9.66-11.26-1.8-2.36-5.28-2.35-8.11-.44-2.15,1.46-2.43,4.1-1.02,6.98,1.21,2.46,4.19,4.08,3.54,7.42-2.47.1-2.96-2.09-4.05-3.55-1.31-1.76-2.74-3.47-3.46-5.6l.06.08c-1.87-2.48-3.99-4.79-5.41-7.6-.28-1.9-2.59-2.68-2.61-4.73.29-2.73-.42-5.35-.94-7.99-.27-1.37-.89-2.72-.06-4.1,1.92.85,3.71.59,5.8.14,3.05-.67,5.79.87,7.85,3.3,2.06,1.94,3.67,4.21,4.95,6.72l-.05-.05c4.59,5.48,8.41,11.54,12.8,17.17.09.95,1.18.71,1.56,1.31,6.66,5.26,4.67,14.03-2.01,15.95-3.58,1.03-6.91-.36-10.15-4.62Z"/><path class="cls-19" d="M18.54,51.26c.4.99.16,1.83-.56,2.58-.77,1.97-.88,4.14-1.84,6.04-.26,1.03.12,2.24-.86,3.06-.5.59-.91,1.43-1.87.61-.82-1.73.09-3.3.51-4.9.67-2.56,1.03-5.12.19-7.68-1.29-3.94-5-4.89-7.76-1.82-3.19,3.55-4.21,7.97-3.82,12.64.21,2.56,1.94,3.77,4.49,4.01,1.28.12,3-.49,3.55,1.49-1.93,2.39-4.48,1.99-6.74,1.03C1.46,67.32.03,65.18,0,62.47c-.03-3.22,0-6.46,1.58-9.42l-.03.06c.46-3.15,1.97-5.86,3.61-8.51l-.07.08c.43-1.79,1.3-3.32,2.65-4.57,1.14-1.23,1.96-2.73,3.31-3.78,6.53-1.11,10.94,3.73,8.68,9.69-.66,1.73-.73,3.51-1.2,5.24Z"/><path class="cls-17" d="M18.54,51.26c-1.07-2.12,0-4.05.54-6.03,1.22-4.41-1.98-8.4-6.74-8.38-.52,0-1.04.02-1.56.03-.32-4.21,1.65-7.53,4.73-9.94,2.27-1.77,4.95-1.03,7.08.79-.67-1.38-.81-2.75.65-3.89,2.56,1.74,1.25,4.33,1.44,6.59-.2,1.43.27,2.86.07,4.3-.4,1.5-1.26,2.86-1.38,4.46-.32,1.37-.93,2.58-1.99,3.53l.07-.05c-.43,1.64-.79,3.29-1.64,4.79-.06,1.39-.29,2.73-1.26,3.82Z"/><path class="cls-15" d="M23.06,23.96c-.05,1.27-.1,2.55-.14,3.72-1.18.8-1.82-.15-2.61-.36-2.77-.73-4.92-.36-6.32,2.63-1.08,2.3-2.49,4.45-3.22,6.92-.23,1.66-1.46,2.68-2.48,3.84-.64-1.12-.86-2.18.41-3.05.58-.34.63-.89.57-1.48.61-1.32.92-2.77,1.74-4l-.03.05c.83-1.85,1.55-3.75,2.8-5.38.86-1.07,1.67-2.16,1.53-3.65.43-1.2.58-2.55,1.81-3.31.9-1.08,1.35-2.36,1.57-3.73.59-1.64,1.16-3.27,1.47-5.02.18-1.06.05-2.92,2.06-2.95.6.71.7,1.55.66,2.43-.74,3.07-1.04,6.06.58,9.02.76,1.38.89,2.98-.42,4.31Z"/><path class="cls-19" d="M30.83,1.52c1.03.65,2.06,1.31,3.1,1.96.22.2.44.39.66.59.72.35,1.52.66.87,1.7-1.93.67-3.44-.99-5.28-.95-1.69.04-3.42-.27-4.77,1.14-1.89,1.02-.85,4.11-3.33,4.71-.04-.9-.08-1.8-.13-2.7.03-.39.06-.78.09-1.18C23.72,1.32,25.73.11,30.83,1.52Z"/><path class="cls-11" d="M51.57,51.12c-.18-.23-.36-.45-.54-.68.06-2.48-1.86-3.97-3.15-5.63-2.05-2.64-2.89-5.54-1.4-8.29,1.56-2.87,5.1-2.88,7.98-3.28,1.82-.25,2.87,1.76,3.77,3.08,2.51,3.7,5.68,6.79,8.67,10.04,1.86,2.02,2.99,4.43,2.73,7.06-.59,5.91-4.98,7.71-10.25,4.62-3.1-1.81-4.46-5.47-7.81-6.93Z"/><path class="cls-13" d="M24.15,35.1c-.19-1.35-.37-2.7-.56-4.05,2.37-1.84,2.03-4.94,3.37-7.27.74-1.29.54-3.13,2.29-3.83,3.68,2.06,5.77,5.31,6.94,9.25,1,1.36,3.19,1.86,2.96,4.1-2.38-1.05-1.46.98-1.42,1.71.22,4.37.47,8.74.15,13.12-2.3-.41-1.59-2.29-1.69-3.66-.14-1.81.21-3.65-.51-5.42-1.63-3.99-5.84-4.7-8.64-1.43-.51.59-.91,1.28-1.71,1.54-1.46-.8-.76-2.34-1.18-3.49,0-.19-.01-.39-.02-.58Z"/><path class="cls-18" d="M36.21,29.21c-2.24-2.98-4.48-5.95-6.73-8.93-2.4-1.42-3.87-3.48-4.31-6.25,2.08-3.76,4.12-4.27,8.64-2.13,1.2,1.35,2.05,2.79,1.32,4.69.58,3.02,1.18,6.04,1.74,9.06.23,1.26.58,2.57-.67,3.56Z"/><path class="cls-6" d="M35.13,16.58c-.48-1.33-.96-2.66-1.44-3.98-.89-1.84-3.35-3.04-2.32-5.66,3.58-1.78,5.65.87,8,2.72.47.31.95.62,1.42.93.4,1.11,1.17,1.91,2.14,2.54,1.88,2.61,3.76,5.21,5.63,7.82-3.43-2.09-6.52-5.29-11.11-1.91-1.14.84-1.11-1.97-2.32-2.45Z"/><path class="cls-9" d="M13.75,63.92l-1.93,2.68-1.16.26c-.52-.05-1.04-.16-1.55-.15-6.65.19-9.34-3.04-7.41-9.41,1.02-3.36,1.14-7.11,4.55-9.59,3.17-2.31,7.31-1.62,8.69,2.13,1.02,2.77.9,5.59.14,8.43-.49,1.87-1.45,3.64-1.32,5.65Z"/><path class="cls-8" d="M24.64,144.33c-1.98-11.12-2.02-22.35-1.86-33.59-.3-8.7.52-17.37.73-26.06.14-5.71.43-11.42.64-17.12.04-.38.01-.81.28-1.11,2.1-2.36,3.66-6.07,7.6-4.97,3.78,1.06,5.9,4.06,6.17,8.14-.48,12.52-.97,25.04-1.41,37.56-.04,1.25-.6,2.59.36,3.76.76,7.5.56,15.03.69,22.55.4,3.45.19,6.92.55,10.39.45,4.28-1.77,6.36-6.11,6.84-3.72.41-6.35-1.55-7.16-5.39-.09-.4-.23-.71-.48-1Z"/><path class="cls-5" d="M24.65,66.51c-.62,14.74-1.25,29.49-1.87,44.23-.7-1.36-.42-2.82-.37-4.23.58-17.98,1.19-35.96,1.8-53.95-.15-4.54-.29-9.08.69-13.57,1.83-1.45,1.41-5.07,5.36-4.64,4.7.51,6.99,2.56,7.08,7.36.04,2.14-1.04,4.41.57,6.42.86,6.08.8,12.2.64,18.3-.39,14.83-.93,29.67-1.4,44.5-1.44-1.11-.78-2.66-.73-4.01.41-12.8.89-25.6,1.34-38.4-.82-4.09-1.67-8.17-1.36-12.38.12-1.6-.41-3.1-1.2-4.48-1.09-1.91-2-4.34-4.8-3.81-2.66.51-3.66,2.8-4.06,5.21-.47,2.84-.32,5.73-.49,8.6-.1,1.68.04,3.43-1.19,4.84Z"/><path class="cls-3" d="M24.64,144.33c2.98,5.27,5.03,6.27,9.39,4.97,3.4-1.01,4.67-3.27,3.98-6.5-.68-3.13-.42-6.2-.17-9.31,1.15,6.01,1.08,12.07.88,18.15.41,1.23.13,2.48.11,3.73-2.36,6.02-7.05,7.05-12.28,2.7-.34-.53-.3-1.14-.33-1.73-1.27-1.44-.02-3.43-1.05-4.92-.9-2.31-.61-4.71-.53-7.09Z"/><path class="cls-11" d="M25.76,14.65c1.24,1.88,2.48,3.75,3.72,5.63-1.36,3.48-2.86,6.92-4.03,10.46-.59,1.79-1.08,1.18-1.85.3-.26-2.36.83-4.82-.53-7.09.16-1.82,0-3.5-1.09-5.14-1.76-2.65-.92-5.44.1-8.14,1.17-1.66.56-4.14,2.51-5.43,1.58-.63,3.15-1.24,4.67.11.15.37.16.91-.17.99-5.02,1.23-4.18,4.76-3.32,8.31Z"/><path class="cls-4" d="M24,37.46c-.49.49-.98.98-1.47,1.47-.11-1.56.44-2.83,1.63-3.83v-.05c.56.84.58,1.65-.16,2.41Z"/><path class="cls-17" d="M24,37.46c.05-.8.1-1.61.15-2.41,1.39,1.1.51,2.64.75,3.96-.23,4.52-.46,9.04-.69,13.56-1-5.02,0-10.07-.21-15.11Z"/><path class="cls-14" d="M30.83,1.52c-4.57-.98-6.94,1.72-8.8,5.27-.77-2.85.64-4.73,2.93-5.99,2.03-1.12,4.13-1.23,5.87.72Z"/><path class="cls-13" d="M29.27,6.12c-1.34-1.46-3.11-.68-4.68-.89,3.76-3.01,7.37-1.27,10.99.35,1.53,1.1,2.95,2.32,3.8,4.06-2.51-1.18-4.81-2.97-7.84-2.61-1.04.41-1.72-.08-2.26-.92Z"/><path class="cls-10" d="M29.27,6.12c.75.31,1.51.61,2.26.92.16,2.07,2.29,3.38,2.16,5.56-4.72-1.8-6.14-1.43-7.93,2.05-3.39-5.69-2.31-8.32,3.5-8.53Z"/><path class="cls-12" d="M24.65,66.51c.14-4.31.37-8.62.38-12.94,0-2.62,1.31-4.57,3.04-6.13,1.83-1.65,4.18-1.91,5.88.25,2,2.53,4.06,5.18,3.56,8.76-.56,4.04,1.04,8.04.23,12.08-.97-1.34-1.89-2.72-2.9-4.02-2.49-3.19-4.74-3.29-7.3-.31-.83.97-1.29,2.34-2.9,2.3Z"/><path class="cls-2" d="M38.34,155.81c-.1,5-2.08,7.57-6.44,7.39-3.08-.13-5.31-1.94-5.28-5.49,6.59,3.2,7.77,3.01,11.72-1.9Z"/></svg>