<svg id="Calque_2" xmlns="http://www.w3.org/2000/svg" viewBox="0 0 246.5 211.56"><defs><style>.cls-1{fill:#1e1e1e}</style></defs><g id="Calque_1-2"><path class="cls-1" d="M119.57.03h7.35v19.15h-7.35zM119.57 192.38h7.35v19.15h-7.35zM57.75 78.13c19.65-25.59 34.24-35.88 46.74-35.88s17.86 9.41 15.48 24.41l-10.12 60.59c-2.38 14.71-1.79 18.83 3.27 18.83 2.98 0 5.66-1.47 13.4-9.12 13.1-12.94 27.69-39.41 27.69-54.71 0-11.18-13.1-7.06-13.1-17.94 0-11.47 11.91-22.06 25.01-22.06s22.63 9.71 22.63 22.94c0 16.18-8.63 33.24-37.22 61.48-34.54 34.12-53.89 42.65-64.31 42.65-11.31 0-18.46-9.12-18.46-23.82 0-5.3 1.49-15.59 2.98-22.94l7.15-35.88c1.79-8.83 2.68-12.06 2.68-13.83s-.89-2.94-2.38-2.94c-2.09 0-7.74 4.41-14.29 13.82l-7.15-5.59ZM191.67 0v6.86l20.34.74c9.18.24 10.92 2.2 10.92 12.5 0 0 1.42 58.87 0 78.43-.4 5.51-3.4 6.73-10.54 6.93l-9.72.35h-10.5v7.25h10.5l9.72.35c7.14.19 10.14 1.41 10.54 6.93 1.28 17.73 0 71.12 0 71.12 0 10.3-1.74 12.26-10.92 12.5l-20.34.73v6.87h54.83V0h-54.83ZM54.83 0v6.86l-20.34.74c-9.18.24-10.92 2.2-10.92 12.5 0 0-1.42 58.87 0 78.43.4 5.51 3.4 6.73 10.54 6.93l9.72.35h10.5v7.24h-10.5l-9.72.35c-7.14.19-10.14 1.41-10.54 6.93-1.28 17.73 0 71.12 0 71.12 0 10.3 1.74 12.26 10.92 12.5l20.34.73v6.87H0V0h54.83Z"/></g></svg>